<svg id="Layer_1" data-name="Layer 1" xmlns="http://www.w3.org/2000/svg" viewBox="0 0 1660 760"><defs><style>.cls-1{fill:#962230;}.cls-2{fill:#c9970a;}.cls-3{fill:#727a2a;}.cls-4{fill:#288c84;}.cls-5{fill:#ffc306;}.cls-6{font-size:260.77px;font-family:EurostileBold, Eurostile;}.cls-7,.cls-8,.cls-9{font-weight:700;}.cls-8{letter-spacing:0.05em;}.cls-10,.cls-9{letter-spacing:-0.03em;}.cls-10,.cls-11{font-family:EurostileRegular, Eurostile;}.cls-12{fill:#97a547;}.cls-13{fill:#39d3cc;}.cls-14,.cls-16{stroke:#000;stroke-linecap:round;stroke-linejoin:round;}.cls-14{stroke-width:3px;}.cls-15{fill:#d12c3b;}.cls-16{fill:none;stroke-width:20px;}</style></defs><title>Artboard 28</title><rect class="cls-1" x="48.74" y="469.12" width="152.24" height="260.24" rx="40.13" ry="40.13"/><rect class="cls-2" x="237.38" y="331.92" width="152.24" height="397.26" rx="39.43" ry="39.43"/><rect class="cls-3" x="427.98" y="186.45" width="152.24" height="542.85" rx="36.43" ry="36.43"/><rect class="cls-4" x="614.72" y="30.91" width="152.24" height="698.78" rx="38.75" ry="38.75"/><rect class="cls-5" x="255.14" y="317.22" width="152.24" height="397.26" rx="39.43" ry="39.43"/><text class="cls-6" transform="translate(797.43 647.3) scale(0.9 1)"><tspan class="cls-7">Da</tspan><tspan class="cls-8" x="311.19" y="0">t</tspan><tspan class="cls-9" x="423.02" y="0">a</tspan><tspan class="cls-10" x="551.83" y="0">R</tspan><tspan class="cls-11" x="707" y="0">es</tspan></text><rect class="cls-12" x="444.84" y="170.81" width="152.24" height="542.85" rx="36.43" ry="36.43"/><rect class="cls-13" x="634.44" y="15.24" width="152.24" height="698.78" rx="38.75" ry="38.75"/><polygon class="cls-14" points="860.55 75.67 799.26 101.34 851.85 142.26 860.55 75.67"/><rect class="cls-15" x="63.47" y="454.31" width="152.24" height="260.24" rx="40.13" ry="40.13"/><path class="cls-16" d="M120,701.88l167.13-232.4L380.05,540c63.78-82.57,126-165.42,191.34-247.7l71.26,51.26C706,266.72,766.34,189.77,832.72,113.09"/><path class="cls-16" d="M8.82,607.57c29.68,26,80,67.12,110.82,94.28"/></svg>