<svg id="Layer_1" data-name="Layer 1" xmlns="http://www.w3.org/2000/svg" xmlns:xlink="http://www.w3.org/1999/xlink" viewBox="0 0 280.52 87.41"><defs><style>.cls-1,.cls-7{font-size:80px;fill:#010101;font-family:Eurostile-Reg, Eurostile;}.cls-1{letter-spacing:0.02em;}.cls-2{letter-spacing:0em;}.cls-3{letter-spacing:0em;}.cls-4,.cls-5{fill:none;stroke-miterlimit:10;stroke-width:6px;}.cls-4{stroke:url(#linear-gradient);}.cls-5{stroke:url(#linear-gradient-2);}.cls-6{fill:url(#linear-gradient-3);}.cls-8{fill:url(#linear-gradient-4);}</style><linearGradient id="linear-gradient" x1="363.7" y1="310.47" x2="407.36" y2="310.47" gradientUnits="userSpaceOnUse"><stop offset="0.02" stop-color="#96a447"/><stop offset="1" stop-color="#55c4c2"/></linearGradient><linearGradient id="linear-gradient-2" x1="279.42" y1="305.86" x2="333.06" y2="305.86" gradientUnits="userSpaceOnUse"><stop offset="0.02" stop-color="#d12c3b"/><stop offset="1" stop-color="#ffc413"/></linearGradient><linearGradient id="linear-gradient-3" x1="232.8" y1="305.43" x2="320.48" y2="305.43" gradientUnits="userSpaceOnUse"><stop offset="0.02" stop-color="#96a447"/><stop offset="0.93" stop-color="#55c4c2"/></linearGradient><linearGradient id="linear-gradient-4" x1="326.35" y1="306.16" x2="399.71" y2="306.16" xlink:href="#linear-gradient-3"/></defs><title>final datares logo</title><text class="cls-1" transform="translate(169.19 67.25)">r<tspan class="cls-2" x="32.72" y="0">e</tspan><tspan class="cls-3" x="73.2" y="0">s</tspan></text><path class="cls-4" d="M364.11,327.93c4-.56,5.91-4.08,7-5.47.71-.88.81-1.16,3.94-8.26,2.84-6.43,3.09-10.62,4-12.67a25.69,25.69,0,0,1,2-4.62,9.91,9.91,0,0,1,2.94-3.4,2.66,2.66,0,0,1,1.46-.48,2.89,2.89,0,0,1,1.81.81c.65.54,1.23,1.26,2.87,4.51a20.17,20.17,0,0,1,1,2.68c.73,2,1.19,3.31,1.92,5.07,1.11,2.67.69,1.72,2.35,6.37,1.42,4,1.57,4.53,2.12,5.93a21.35,21.35,0,0,0,3.13,5.29,11.81,11.81,0,0,0,5.68,4.34" transform="translate(-237.8 -262.09)"/><path class="cls-5" d="M279.58,326.91c2.28.12,5.41-2.36,8.5-6a30.88,30.88,0,0,0,3.92-6.22,95,95,0,0,0,6.6-15.57c1.14-3.31,2.22-7.25,3.47-10.49a10.47,10.47,0,0,1,1-1.9,4.47,4.47,0,0,1,1.74-1.83,2.74,2.74,0,0,1,2.62.36,5.5,5.5,0,0,1,1.74,2.42,75.46,75.46,0,0,1,3.36,9.59,123.92,123.92,0,0,0,4.59,12.88,49.63,49.63,0,0,0,5.39,10,18.35,18.35,0,0,0,5.45,5.49c1.54,1.06,3,1.65,4.19,1.25" transform="translate(-237.8 -262.09)"/><path class="cls-6" d="M273.8,328.77h-5.44l.24-4.88h-.08c-1.84,3.84-5.44,5.44-12.08,5.44-5.36,0-9.12-1.28-11.36-3.76-2.56-2.8-3.52-7.28-3.52-16,0-14,3.6-18.72,14.48-18.72a20.47,20.47,0,0,1,9.36,1.84,5.14,5.14,0,0,1,2.8,3.44l.16-.08V275.41h5.44Zm-24-31.36c-1.68,1.68-2.56,5.68-2.56,11.84,0,12.8,1.76,15.44,10.4,15.44,4,0,6.64-.72,8.24-2.24s2.48-6.16,2.48-13.44c0-10.56-2.4-13.52-10.8-13.52C254,295.49,251,296.21,249.8,297.41Z" transform="translate(-237.8 -262.09)"/><text class="cls-7" transform="translate(0 66.68)">d</text><path class="cls-8" d="M356.39,296.7H342v22.88c0,4.64,1,5.84,5.2,5.84,4.56,0,5.6-1.28,5.6-7.12,0-.56,0-1-.08-2h5c.08,1.12.08,2.24.08,2.8,0,7.68-3.2,11-10.72,11-5.76,0-8.8-1.52-10-4.8-.48-1.36-.56-2.32-.56-5.68V296.7h-5.2v-4.56h5.2v-9H342v9h14.4Z" transform="translate(-237.8 -262.09)"/><text class="cls-7" transform="translate(93.95 67.41)">t</text></svg>