<svg id="Layer_1" data-name="Layer 1" xmlns="http://www.w3.org/2000/svg" viewBox="0 0 830 380"><defs><style>.cls-1{fill:#962230;}.cls-2{fill:#c9970a;}.cls-3{fill:#727a2a;}.cls-4{fill:#288c84;}.cls-5{fill:#ffc306;}.cls-6{font-size:126.86px;font-family:EurostileBold, Eurostile;}.cls-7,.cls-8{font-weight:700;}.cls-8{letter-spacing:0.03em;}.cls-10,.cls-9{font-family:EurostileRegular, Eurostile;}.cls-9{letter-spacing:-0.03em;}.cls-11{fill:#97a547;}.cls-12{fill:#39d3cc;}.cls-13,.cls-15{stroke:#000;stroke-linecap:round;stroke-linejoin:round;}.cls-13{stroke-width:3px;}.cls-14{fill:#d12c3b;}.cls-15{fill:none;stroke-width:12px;}</style></defs><title>Artboard 23</title><rect class="cls-1" x="31.79" y="233.77" width="75" height="126.6" rx="22.22" ry="22.22"/><rect class="cls-2" x="124.72" y="167.02" width="75" height="193.27" rx="22.87" ry="22.87"/><rect class="cls-3" x="218.62" y="96.25" width="75" height="264.1" rx="20.67" ry="20.67"/><rect class="cls-4" x="310.62" y="20.58" width="75" height="339.95" rx="20.85" ry="20.85"/><rect class="cls-5" x="133.47" y="159.87" width="75" height="193.27" rx="22.87" ry="22.87"/><text class="cls-6" transform="translate(400.63 320.45) scale(0.91 1)"><tspan class="cls-7">Da</tspan><tspan class="cls-8" x="151.39" y="0">ta</tspan><tspan class="cls-9" x="273.41" y="0">R</tspan><tspan class="cls-10" x="348.9" y="0">es</tspan></text><rect class="cls-11" x="226.93" y="88.64" width="75" height="264.1" rx="20.67" ry="20.67"/><rect class="cls-12" x="320.33" y="12.96" width="75" height="339.95" rx="20.85" ry="20.85"/><polygon class="cls-13" points="431.73 42.36 401.53 54.85 427.44 74.75 431.73 42.36"/><rect class="cls-14" x="39.04" y="226.56" width="75" height="126.6" rx="22.22" ry="22.22"/><path class="cls-15" d="M66.88,347Q108.06,290.48,149.22,234L195,268.24c31.43-40.17,62.06-80.48,94.27-120.51l35.11,24.94C355.59,135.3,385.31,97.87,418,60.56"/><path class="cls-15" d="M12.12,301.13C26.74,313.78,51.54,333.78,66.71,347"/></svg>